#define hand2_mask_width 16
#define hand2_mask_height 16
static unsigned char hand2_mask_bits[] = {
   0xfe, 0x01, 0xff, 0x03, 0xff, 0x07, 0xff, 0x0f, 0xfe, 0x1f, 0xf8, 0x1f,
   0xfc, 0x1f, 0xf8, 0x3f, 0xfc, 0x7f, 0xf8, 0xff, 0xf0, 0x7f, 0xe0, 0x3f,
   0xc0, 0x1f, 0x80, 0x0f, 0x00, 0x07, 0x00, 0x02};
