#define pirate_mask_width 16
#define pirate_mask_height 16
static unsigned char pirate_mask_bits[] = {
   0xf0, 0x03, 0xf8, 0x07, 0xfc, 0x0f, 0xfe, 0x1f, 0xfe, 0x1f, 0xfc, 0x0f,
   0xf8, 0x07, 0xf1, 0x83, 0xf1, 0xe3, 0xf3, 0xf3, 0xef, 0x39, 0x1e, 0x1e,
   0xe0, 0x01, 0xfe, 0xc7, 0xff, 0xff, 0x0f, 0x7c};
