#define pirate_width 16
#define pirate_height 16
#define pirate_x_hot 7
#define pirate_y_hot 12
static unsigned char pirate_bits[] = {
   0xe0, 0x01, 0xf0, 0x03, 0xf8, 0x07, 0xcc, 0x0c, 0xcc, 0x0c, 0xf8, 0x07,
   0xf0, 0x03, 0xe0, 0x01, 0xe1, 0x21, 0xe1, 0x61, 0xc2, 0x10, 0x1c, 0x0e,
   0xe0, 0x01, 0xf8, 0x47, 0x0f, 0x7c, 0x01, 0x20};
